<?xml version="1.0" encoding="utf-8"?><!-- Uploaded to: SVG Repo, www.svgrepo.com, Generator: SVG Repo Mixer Tools -->
<svg fill="#000000" width="800px" height="800px" viewBox="0 0 24 24" id="apple-fruit" data-name="Flat Color" xmlns="http://www.w3.org/2000/svg" class="icon flat-color"><path id="secondary" d="M12,8a1,1,0,0,1-1-1,6.07,6.07,0,0,1,2.45-4.83,1,1,0,0,1,1.1,1.66A4.12,4.12,0,0,0,13,7,1,1,0,0,1,12,8Z" style="fill: rgb(44, 169, 188);"></path><path id="primary" d="M17.88,5.4a5.43,5.43,0,0,0-4.57.22A4,4,0,0,1,12,6a4.08,4.08,0,0,1-1.32-.38A5.42,5.42,0,0,0,6.11,5.4c-2.41,1-3.43,3.4-3,7.09C3.59,17.1,5.77,22,8.81,22a3.8,3.8,0,0,0,2-.61A2.12,2.12,0,0,1,12,21a2.09,2.09,0,0,1,1.16.38,3.84,3.84,0,0,0,2,.61c3,0,5.22-4.9,5.72-9.51S19.54,6.1,17.88,5.4Z" style="fill: rgb(0, 0, 0);"></path></svg>